<svg id="Calque_1" data-name="Calque 1" xmlns="http://www.w3.org/2000/svg" viewBox="0 0 211.96 211.86"><defs><style>.cls-1{fill:#1a171b;}</style></defs><path class="cls-1" d="M106,11a95,95,0,1,1-95,95,95,95,0,0,1,95-95m0-11A106,106,0,1,0,212,106,106.1,106.1,0,0,0,106,0Z"/><path d="M176.42,63.16H169l-24.31,40.9a2,2,0,1,1-3.44-2l23.1-38.86H151.46a2,2,0,0,0-1.7,1l-22,35.67a3.12,3.12,0,0,1-2,.48c-.12-.07-.48-.62-.48-2.2V82.28a2,2,0,0,0-2-2H88.67a2,2,0,0,0-2,2V98.06c0,1.58-.36,2.13-.49,2.2a3.19,3.19,0,0,1-2-.48l-22-35.67a2,2,0,0,0-1.7-1H48.79L72,102.24a2,2,0,1,1-3.44,2L44.14,63.16h-8.6a2,2,0,0,0-2,2v18a2,2,0,0,0,.37,1.15l69.88,99.45c.06.08.13.13.19.2V143.53a2,2,0,0,1,4,0V184a1,1,0,0,0,.19-.21l69.89-99.45a2.06,2.06,0,0,0,.36-1.15v-18A2,2,0,0,0,176.42,63.16Z"/></svg>