<svg id="Calque_1" data-name="Calque 1" xmlns="http://www.w3.org/2000/svg" viewBox="0 0 211.96 211.86"><defs><style>.cls-1{fill:#1a171b;}.cls-2{fill:none;stroke:#1a171b;stroke-linecap:round;stroke-linejoin:round;stroke-width:4px;}</style></defs><path class="cls-1" d="M106,11a95,95,0,1,1-95,95,95,95,0,0,1,95-95m0-11A106,106,0,1,0,212,106,106.1,106.1,0,0,0,106,0Z"/><path class="cls-1" d="M190.17,102.44a7.18,7.18,0,0,0-1.55-1.71,17.76,17.76,0,0,0-4.38-2.48A68.76,68.76,0,0,0,172,94.77c-15-3.09-37.87-5-63.61-5-22.31,0-42.51,1.47-57.22,3.87a93.37,93.37,0,0,0-17.64,4.27,20.1,20.1,0,0,0-5.22,2.76,7.35,7.35,0,0,0-1.67,1.81,4.34,4.34,0,0,0,0,4.79,7,7,0,0,0,1.55,1.71,17.76,17.76,0,0,0,4.38,2.48,68.76,68.76,0,0,0,12.21,3.48c15,3.09,37.87,5,63.61,5,22.31,0,42.51-1.47,57.22-3.87a93.37,93.37,0,0,0,17.64-4.27A20.1,20.1,0,0,0,188.5,109a7.35,7.35,0,0,0,1.67-1.81,4.34,4.34,0,0,0,0-4.79ZM87.7,104.16a108.56,108.56,0,0,1,20.72-1.65,120.24,120.24,0,0,1,18.48,1.24,32,32,0,0,1,4.79,1.08,23.68,23.68,0,0,1-2.55.68,109.25,109.25,0,0,1-20.72,1.66,121.35,121.35,0,0,1-18.48-1.25,32,32,0,0,1-4.79-1.08A23.68,23.68,0,0,1,87.7,104.16Z"/><path class="cls-2" d="M97.83,124.48c3.37,17.88,5.71,36.45,5.71,53.49"/><path class="cls-2" d="M76.44,47.08s5.64,15.24,12,37.44"/><line class="cls-2" x1="76.44" y1="39.4" x2="81.82" y2="32.64"/><line class="cls-2" x1="68.55" y1="41.66" x2="62.1" y2="40.37"/><line class="cls-2" x1="69.84" y1="53.45" x2="62.43" y2="53.45"/><line class="cls-2" x1="73.06" y1="62.93" x2="68.23" y2="63.58"/><line class="cls-2" x1="84.02" y1="49.07" x2="88.43" y2="44.56"/><line class="cls-2" x1="88.43" y1="59.39" x2="90.79" y2="58.42"/><path class="cls-2" d="M133.56,124.48c3.37,17.88,5.71,36.45,5.71,53.49"/><path class="cls-2" d="M112.17,47.08s5.64,15.24,12,37.44"/><line class="cls-2" x1="112.17" y1="39.4" x2="117.55" y2="32.64"/><line class="cls-2" x1="104.28" y1="41.66" x2="97.83" y2="40.37"/><line class="cls-2" x1="105.57" y1="53.45" x2="98.16" y2="53.45"/><line class="cls-2" x1="108.79" y1="62.93" x2="103.96" y2="63.58"/><line class="cls-2" x1="119.75" y1="49.07" x2="124.16" y2="44.56"/><line class="cls-2" x1="124.16" y1="59.39" x2="126.52" y2="58.42"/></svg>