<svg id="Calque_1" data-name="Calque 1" xmlns="http://www.w3.org/2000/svg" viewBox="0 0 211.96 211.86"><defs><style>.cls-1{fill:#1a171b;}</style></defs><path class="cls-1" d="M106,11a95,95,0,1,1-95,95,95,95,0,0,1,95-95m0-11A106,106,0,1,0,212,106,106.1,106.1,0,0,0,106,0Z"/><path class="cls-1" d="M152.77,149.79a15.41,15.41,0,0,0-2.28-4.17,13.92,13.92,0,0,0-1.36-1.55L86.39,81.34a16.93,16.93,0,0,0,8.27-4.56L91.84,74l2.82,2.82A17.06,17.06,0,1,0,66,60.92L53.14,48.08,41.55,36.5a4,4,0,0,0-5.65,5.65L47.48,53.74l23.05,23h0l72.95,72.95.08.09h0a7.32,7.32,0,0,1,1.07,1.38,7,7,0,0,1,.62,1.33,4.34,4.34,0,0,1,.24,1.4,4,4,0,0,1-.36,1.65,7.76,7.76,0,0,1-1.65,2.29L126.37,175a4,4,0,1,0,5.66,5.66h0l17.1-17.1a15.55,15.55,0,0,0,3.33-4.74,11.94,11.94,0,0,0,1-4.86A12.53,12.53,0,0,0,152.77,149.79ZM73.53,64.72a9,9,0,1,1,2.65,6.41A9,9,0,0,1,73.53,64.72Z"/><path class="cls-1" d="M179.81,119.17a2,2,0,0,0-2.83,0l-11.55,11.54L173,114.17a2,2,0,0,0-3.23-2.24l-11.55,11.54,7.54-16.54a2,2,0,0,0-3.23-2.24L151,116.23l7.54-16.54a2,2,0,0,0-3.23-2.25L143.71,109l7.54-16.54A2,2,0,0,0,148,90.2l-11.55,11.55L144,85.21A2,2,0,0,0,140.78,83L129.23,94.51,136.77,78a2,2,0,0,0-3.24-2.25L122,87.27l7.54-16.55a2,2,0,0,0-3.24-2.24L114.75,80l7.54-16.55a2,2,0,0,0-3.24-2.24L99.32,81a2,2,0,0,0,2.83,2.83h0l11.91-11.91-7.39,16.22-.11.1A2,2,0,1,0,109.39,91h0L121.3,79.13l-7.39,16.22-.11.1a2,2,0,0,0,2.83,2.83h0l11.91-11.91-7.39,16.22-.11.1a2,2,0,0,0,2.83,2.83h0l11.91-11.91-7.39,16.22-.1.1a2,2,0,1,0,2.82,2.83h0L143,100.85l-7.39,16.22-.1.11a2,2,0,0,0,2.82,2.82h0l11.91-11.91-7.39,16.22-.1.11a2,2,0,1,0,2.83,2.83h0l11.9-11.91-7.39,16.21-.1.11a2,2,0,0,0,2.83,2.83h0l11.91-11.91-7.54,16.54a2,2,0,0,0,3.23,2.24L179.81,122A2,2,0,0,0,179.81,119.17Z"/></svg>