<svg id="Calque_1" data-name="Calque 1" xmlns="http://www.w3.org/2000/svg" viewBox="0 0 211.96 211.86"><defs><style>.cls-1{fill:#1a171b;}</style></defs><path class="cls-1" d="M106,11a95,95,0,1,1-95,95,95,95,0,0,1,95-95m0-11A106,106,0,1,0,212,106,106.1,106.1,0,0,0,106,0Z"/><path class="cls-1" d="M152.77,153a15.18,15.18,0,0,0-2.28-4.16,13.92,13.92,0,0,0-1.36-1.55L86.39,84.59A17,17,0,0,0,94.66,80l-2.82-2.83L94.66,80A17.07,17.07,0,1,0,66,64.17L53.14,51.34,41.55,39.75a4,4,0,1,0-5.65,5.66L47.48,57,70.53,80h0l72.95,73,.08.08h0a7.2,7.2,0,0,1,1.07,1.39,6.48,6.48,0,0,1,.62,1.33,4.25,4.25,0,0,1,.24,1.4,4,4,0,0,1-.36,1.64,7.64,7.64,0,0,1-1.65,2.29l-17.11,17.11a4,4,0,1,0,5.66,5.65h0l17.1-17.1a15.51,15.51,0,0,0,3.33-4.73,12,12,0,0,0,1-4.86A12.55,12.55,0,0,0,152.77,153ZM73.53,68a9.06,9.06,0,1,1,2.65,6.41A9,9,0,0,1,73.53,68Z"/></svg>