<svg id="Calque_1" data-name="Calque 1" xmlns="http://www.w3.org/2000/svg" viewBox="0 0 211.96 211.86"><defs><style>.cls-1{fill:#1a171b;}</style></defs><path class="cls-1" d="M106,11a95,95,0,1,1-95,95,95,95,0,0,1,95-95m0-11a106,106,0,1,0,106,106A106.1,106.1,0,0,0,106,0Z"/><path class="cls-1" d="M188.41,115.21a44.46,44.46,0,0,0-3.31-5,41.94,41.94,0,0,0-23.4-15.48,46.49,46.49,0,0,0-11.36-1.41c-.86,0-1.61,0-2.23,0a48.25,48.25,0,0,1,14.16-6,47.1,47.1,0,0,1,6.82-1.14c1.6-.15,3.12-.21,4.55-.21a49.22,49.22,0,0,1,9.57.94,2,2,0,0,0,1.63-3.53,44.51,44.51,0,0,0-5-3.39h0a42.62,42.62,0,0,0-11.52-4.64,41.74,41.74,0,0,0-9.69-1.13,45.59,45.59,0,0,0-18.89,4.2A47.71,47.71,0,0,1,150.26,68a46.56,46.56,0,0,1,5.88-3.64,48.71,48.71,0,0,1,13.35-4.66,2,2,0,0,0,.17-3.89,43.59,43.59,0,0,0-5.91-1.24,42.65,42.65,0,0,0-6-.43,41.4,41.4,0,0,0-6.38.49,42.71,42.71,0,0,0-17.45,6.93,46.46,46.46,0,0,0-8,6.89,47.89,47.89,0,0,1,5.81-13.9h0a48,48,0,0,1,4.05-5.61h0a49.21,49.21,0,0,1,10.57-9.39,2,2,0,0,0,.79-2.35A2,2,0,0,0,145,35.88,44.57,44.57,0,0,0,139,37a42.09,42.09,0,0,0-11.47,4.78,42.71,42.71,0,0,0-13.49,13.06,46.53,46.53,0,0,0-5,9.84,48.4,48.4,0,0,1-.07-15.5l-2-.31,2,.31a47.81,47.81,0,0,1,1.59-6.73,49.08,49.08,0,0,1,6.13-12.74,2,2,0,0,0-2.63-2.86,44.9,44.9,0,0,0-5.05,3.29h0A42,42,0,0,0,93.52,53.59,46.35,46.35,0,0,0,92.11,65c0,.62,0,1.17,0,1.66-.28-.46-.57-.95-.86-1.47a48.38,48.38,0,0,1-4.8-12.38h0c-.13-.56-.25-1.11-.36-1.67,0-.13,0-.26-.07-.39-.08-.43-.16-.87-.23-1.29,0-.12,0-.23,0-.34-.07-.48-.14-.94-.19-1.4a1,1,0,0,1,0-.16c-.06-.53-.12-1.06-.16-1.58h0c-.13-1.45-.18-2.84-.18-4.16a48.76,48.76,0,0,1,1-9.95,2,2,0,0,0-1.11-2.22,2.18,2.18,0,0,0-.65-.18,1.82,1.82,0,0,0-.33,0,2.07,2.07,0,0,0-.42.08,2,2,0,0,0-.78.42,1.84,1.84,0,0,0-.23.25h0c-.28.35-.57.73-.87,1.13-.17.22-.34.47-.51.7l-.39.55q-.33.48-.66,1l-.24.37c-.25.39-.5.79-.75,1.21h0l-.7,1.22-.44.84c-.21.4-.42.81-.62,1.23s-.26.53-.38.8c-.25.54-.49,1.1-.72,1.67-.08.19-.16.38-.23.58-.27.7-.53,1.42-.78,2.17q-.08.23-.15.48c-.25.81-.5,1.63-.71,2.5s-.4,1.75-.56,2.61a42.12,42.12,0,0,0-.65,7.4h0a45.18,45.18,0,0,0,2.13,13.56c.12.4.25.78.38,1.14.25.73.5,1.41.75,2l.35.87c.24.56.46,1,.65,1.47A48,48,0,0,1,66.77,64.88h0A48.34,48.34,0,0,1,63.15,59a49,49,0,0,1-4.64-13.36,2,2,0,0,0-3.88-.18,43.31,43.31,0,0,0-1.26,5.91,42.29,42.29,0,0,0-.44,6.12A41.83,41.83,0,0,0,60.3,81.24a46,46,0,0,0,6.77,7.93,48.13,48.13,0,0,1-13.74-5.82A48.45,48.45,0,0,1,38.39,68.66,2,2,0,0,0,34.73,70a44.35,44.35,0,0,0,1.07,5.94h0a42.23,42.23,0,0,0,4.74,11.48,43,43,0,0,0,13,13.55,46.36,46.36,0,0,0,9.66,4.92,47.61,47.61,0,0,1-22.05-1.68h0A48.29,48.29,0,0,1,28.45,98a2,2,0,0,0-2.88,2.62,42.32,42.32,0,0,0,3.27,5.07h0a41.89,41.89,0,0,0,23.59,15.77,46.27,46.27,0,0,0,11.42,1.43c.59,0,1.11,0,1.57,0a47.74,47.74,0,0,1-20.85,6.75c-1.39.12-2.71.16-4,.16a48.58,48.58,0,0,1-10.13-1.06,2,2,0,0,0-1.67,3.52,44.6,44.6,0,0,0,5,3.44,42.07,42.07,0,0,0,11.47,4.78,41.54,41.54,0,0,0,10.17,1.25,45.79,45.79,0,0,0,18.68-4.09A48,48,0,0,1,63.3,148.15a47.29,47.29,0,0,1-5.91,3.58h0A48.83,48.83,0,0,1,44,156.27a2,2,0,0,0-.2,3.89,43.91,43.91,0,0,0,5.89,1.3,42.93,42.93,0,0,0,6.41.48,41.25,41.25,0,0,0,6-.43,42.75,42.75,0,0,0,17.51-6.78,46.35,46.35,0,0,0,8.5-7.27l.19.09a48.13,48.13,0,0,1-5.89,14.51,49.13,49.13,0,0,1-4,5.61h0a49.08,49.08,0,0,1-10.54,9.43,2,2,0,0,0,1.33,3.65,44.78,44.78,0,0,0,5.93-1.11,42.22,42.22,0,0,0,11.45-4.82A42.72,42.72,0,0,0,100,161.72a46.06,46.06,0,0,0,4.81-9.55,47.73,47.73,0,0,1-1.58,21.92h0a48.79,48.79,0,0,1-6.14,12.73,2,2,0,0,0,2.63,2.87,45.17,45.17,0,0,0,5.06-3.3h0a41.83,41.83,0,0,0,15.59-23.47,46.57,46.57,0,0,0,1.42-11.39c0-.69,0-1.29,0-1.82a47.78,47.78,0,0,1,6.87,20.82c.13,1.48.18,2.9.18,4.24a48.26,48.26,0,0,1-1,9.88,2,2,0,0,0,3.53,1.65,44.78,44.78,0,0,0,3.42-5,42.21,42.21,0,0,0,4.71-11.49,41.58,41.58,0,0,0,1.2-10,45.81,45.81,0,0,0-4.28-19.08,47.6,47.6,0,0,1,14.45,16.69h0a48.53,48.53,0,0,1,4.64,13.35,2,2,0,0,0,3.89.17,45,45,0,0,0,1.26-5.9A43.47,43.47,0,0,0,161,159a42.23,42.23,0,0,0-.48-6.35,42.77,42.77,0,0,0-6.92-17.45,46.45,46.45,0,0,0-7.34-8.45l0,0a47.73,47.73,0,0,1,14.53,5.84,47.13,47.13,0,0,1,5.64,4h0A48.89,48.89,0,0,1,176,147.11a2,2,0,0,0,3.65-1.35,43.81,43.81,0,0,0-1.14-5.93,42,42,0,0,0-4.86-11.43A42.71,42.71,0,0,0,160.45,115a46.58,46.58,0,0,0-9.53-4.76,47.68,47.68,0,0,1,15.14,0l.31-2-.31,2a48,48,0,0,1,6.74,1.56,48.78,48.78,0,0,1,12.75,6.1,2,2,0,0,0,2.86-2.64Zm-69.47-6.95a12,12,0,1,1-12-12A12,12,0,0,1,118.94,108.26Zm39.69-30a37.76,37.76,0,0,1,8.76,1c.74.18,1.45.38,2.14.59a2,2,0,0,0-1.64,1.28l-.44,1.23a50.63,50.63,0,0,0-6.13,1.1,52,52,0,0,0-14.57,6l-4.38-7.83A41.57,41.57,0,0,1,158.63,78.24Zm-22.5-13.38a38.73,38.73,0,0,1,15.81-6.29c.75-.12,1.49-.2,2.21-.27a2,2,0,0,0-1,1.8l0,1.31a50.34,50.34,0,0,0-5.26,3.34l1.17,1.62-1.17-1.62A52.17,52.17,0,0,0,136.7,75.82l-7-5.59A42.58,42.58,0,0,1,136.13,64.86ZM117.41,57a38.83,38.83,0,0,1,12.23-11.84c.65-.4,1.3-.75,1.94-1.09a2,2,0,0,0-.27,2.06l.55,1.19a50,50,0,0,0-3.59,5.08l1.7,1-1.7-1A52.11,52.11,0,0,0,122.11,67l-8.61-2.5A41.56,41.56,0,0,1,117.41,57Zm-20-2.46a38.31,38.31,0,0,1,6.19-13.25c.45-.62.91-1.19,1.37-1.75a2,2,0,0,0,.55,2l1,.89a50.72,50.72,0,0,0-2,14.24,53.63,53.63,0,0,0,.55,7.6l-8.91,1V65A42.33,42.33,0,0,1,97.4,54.57ZM77.35,56.65a39.31,39.31,0,0,1,.25-4.39,38.5,38.5,0,0,1,.84-4.66c.19-.74.39-1.44.61-2.13a2,2,0,0,0,1.26,1.64l1.22.45.06.43a1.23,1.23,0,0,0,0,.2c.06.49.13,1,.21,1.49l.06.39q.11.68.24,1.38c0,.15,0,.29.08.44.12.6.25,1.2.39,1.81a52.16,52.16,0,0,0,5.9,14.62l-7.87,4.32A41.91,41.91,0,0,1,77.35,56.65ZM63.62,79a38.68,38.68,0,0,1-6.26-15.83c-.12-.75-.2-1.48-.27-2.2a2,2,0,0,0,1.81,1l1.31,0a52.21,52.21,0,0,0,3.32,5.26l1.62-1.17-1.62,1.17a51.84,51.84,0,0,0,11,11.23l-5.6,7A42.68,42.68,0,0,1,63.62,79Zm-.45,22.55a41.94,41.94,0,0,1-7.4-3.94A38.7,38.7,0,0,1,44,85.34c-.39-.66-.74-1.3-1.08-1.94a2,2,0,0,0,2.06.27l1.2-.54a53,53,0,0,0,5.06,3.61L52.27,85l-1.06,1.7A52.32,52.32,0,0,0,65.7,93Zm.68,17.31a42.7,42.7,0,0,1-10.44-1.3A38.46,38.46,0,0,1,40,111.23c-.61-.45-1.19-.91-1.74-1.37a2,2,0,0,0,2-.54l.9-1a49,49,0,0,0,6.06,1.39l.33-2-.33,2a51.09,51.09,0,0,0,8.47.7,53.07,53.07,0,0,0,7.3-.51l1,8.92Zm-8.46,18.81a37.71,37.71,0,0,1-9.2-1.13c-.74-.19-1.44-.39-2.14-.61a2,2,0,0,0,1.65-1.26l.47-1.23a52.35,52.35,0,0,0,6.14-1l-.45-1.95.45,1.95a52,52,0,0,0,14.63-5.85l4.3,7.88A41.89,41.89,0,0,1,55.39,137.67Zm22,13.72a38.69,38.69,0,0,1-15.87,6.16c-.76.11-1.49.19-2.21.25a2,2,0,0,0,1.05-1.8l0-1.31a51.33,51.33,0,0,0,16.59-14.26l7,5.65A42.11,42.11,0,0,1,77.41,151.39Zm19.25,8.13A38.63,38.63,0,0,1,84.47,171.4c-.65.4-1.29.75-1.93,1.09a2,2,0,0,0,.26-2.06l-.55-1.19a51.61,51.61,0,0,0,9.68-19.62l8.63,2.47A43.16,43.16,0,0,1,96.66,159.52Zm19.83,2.42a38.2,38.2,0,0,1-6.2,13.26c-.45.62-.91,1.19-1.37,1.75a2,2,0,0,0-.55-2l-1-.89a51.65,51.65,0,0,0,1.36-6.07l-2-.32,2,.31a52.14,52.14,0,0,0,.1-15.76l8.91-1c0,.11,0,.21,0,.32A42.6,42.6,0,0,1,116.49,161.94Zm20.16-2.06a37.84,37.84,0,0,1-1.08,9c-.18.74-.39,1.45-.6,2.14a2,2,0,0,0-1.27-1.64l-1.23-.46a50.58,50.58,0,0,0-1.06-6.13,52.22,52.22,0,0,0-5.92-14.61l7.86-4.33A41.84,41.84,0,0,1,136.65,159.88Zm13.67-22.41a38.7,38.7,0,0,1,6.28,15.82c.12.75.2,1.49.27,2.21a2,2,0,0,0-1.8-1l-1.31.05A51.58,51.58,0,0,0,139.36,138l5.6-7A42.43,42.43,0,0,1,150.32,137.47Zm7.94-19.12a38.67,38.67,0,0,1,11.93,12.15c.4.64.76,1.28,1.1,1.92a2,2,0,0,0-2.06-.25l-1.19.56a51.42,51.42,0,0,0-19.66-9.61l2.44-8.63A42.22,42.22,0,0,1,158.26,118.35Zm15.38-11.74-.89,1a48.94,48.94,0,0,0-6.07-1.34h0a51.6,51.6,0,0,0-8-.63,52.43,52.43,0,0,0-7.75.58l-1-8.91h.47a42.47,42.47,0,0,1,10.38,1.29,38.36,38.36,0,0,1,13.17,6.12c.62.45,1.19.91,1.75,1.37A2,2,0,0,0,173.64,106.61Z"/></svg>