<svg id="Calque_1" data-name="Calque 1" xmlns="http://www.w3.org/2000/svg" viewBox="0 0 211.96 211.86"><defs><style>.cls-1{fill:#1a171b;}.cls-2{fill:none;stroke:#1a171b;stroke-linecap:round;stroke-linejoin:round;stroke-width:4px;}</style></defs><path class="cls-1" d="M106,11.13a95,95,0,1,1-95,95,95,95,0,0,1,95-95m0-11a106,106,0,1,0,106,106A106.11,106.11,0,0,0,106,.13Z"/><line class="cls-2" x1="108.01" y1="138.58" x2="107.52" y2="192.88"/><line class="cls-2" x1="129.23" y1="129.79" x2="167.28" y2="168.53"/><line class="cls-2" x1="136" y1="106.12" x2="190.3" y2="106.61"/><line class="cls-2" x1="127.21" y1="84.89" x2="165.95" y2="46.84"/><line class="cls-2" x1="105.98" y1="76.1" x2="106.47" y2="21.8"/><line class="cls-2" x1="84.76" y1="84.89" x2="46.71" y2="46.15"/><line class="cls-2" x1="75.96" y1="106.12" x2="21.67" y2="105.63"/><line class="cls-2" x1="86.78" y1="129.79" x2="48.04" y2="167.84"/><line class="cls-2" x1="119.34" y1="136.36" x2="139.4" y2="186.82"/><line class="cls-2" x1="135.68" y1="120.2" x2="185.54" y2="141.7"/><line class="cls-2" x1="133.78" y1="94.78" x2="184.24" y2="74.72"/><line class="cls-2" x1="117.62" y1="78.45" x2="139.12" y2="28.58"/><line class="cls-2" x1="94.64" y1="78.32" x2="74.59" y2="27.86"/><line class="cls-2" x1="78.31" y1="94.48" x2="28.45" y2="72.98"/><line class="cls-2" x1="80.21" y1="119.9" x2="29.75" y2="139.96"/><line class="cls-2" x1="96.37" y1="136.23" x2="74.87" y2="186.1"/><path class="cls-1" d="M106,76.1a30,30,0,1,0,30,30A30,30,0,0,0,106,76.1Zm.49,41.9a12,12,0,1,1,12-12A12,12,0,0,1,106.47,118Z"/></svg>